REM GENRE Classical
REM DATE 1978
REM DISCID 92117B18
REM COMMENT "ExactAudioCopy v0.95b4"
PERFORMER "Salvatore Accardo"
TITLE "Accardo plays Paganini (CD 5)"
FILE "Salvatore Accardo - Accardo plays Paganini (CD 5).ape" WAVE
  TRACK 01 AUDIO
    TITLE "No.1 In E"
    PERFORMER "Salvatore Accardo"
    ISRC DEF057730800
    INDEX 00 00:00:00
    INDEX 01 00:00:33
  TRACK 02 AUDIO
    TITLE "No.2 In B Minor"
    PERFORMER "Salvatore Accardo"
    ISRC 000000000000
    INDEX 01 01:47:33
  TRACK 03 AUDIO
    TITLE "No.3 In E Minor"
    PERFORMER "Salvatore Accardo"
    ISRC 000000000000
    INDEX 00 04:22:63
    INDEX 01 04:24:65
  TRACK 04 AUDIO
    TITLE "No.4 In C Minor"
    PERFORMER "Salvatore Accardo"
    ISRC 000000000000
    INDEX 00 07:13:13
    INDEX 01 07:17:05
  TRACK 05 AUDIO
    TITLE "No.5 In A Minor"
    PERFORMER "Salvatore Accardo"
    ISRC 000000000000
    INDEX 00 14:00:35
    INDEX 01 14:02:15
  TRACK 06 AUDIO
    TITLE "No.6 In G Minor"
    PERFORMER "Salvatore Accardo"
    ISRC 000000000000
    INDEX 00 16:16:55
    INDEX 01 16:19:03
  TRACK 07 AUDIO
    TITLE "No.7 In A Minor"
    PERFORMER "Salvatore Accardo"
    ISRC 000000000000
    INDEX 00 20:48:50
    INDEX 01 20:51:48
  TRACK 08 AUDIO
    TITLE "No.8 In E Flat"
    PERFORMER "Salvatore Accardo"
    ISRC 000000000000
    INDEX 00 24:32:10
    INDEX 01 24:33:28
  TRACK 09 AUDIO
    TITLE "No.9 In E"
    PERFORMER "Salvatore Accardo"
    ISRC 000000000000
    INDEX 00 27:29:63
    INDEX 01 27:31:55
  TRACK 10 AUDIO
    TITLE "No.10 In G Minor"
    PERFORMER "Salvatore Accardo"
    ISRC 000000000000
    INDEX 00 30:52:50
    INDEX 01 30:55:53
  TRACK 11 AUDIO
    TITLE "No.11 In C"
    PERFORMER "Salvatore Accardo"
    ISRC 000000000000
    INDEX 00 33:15:23
    INDEX 01 33:16:13
  TRACK 12 AUDIO
    TITLE "No.12 In A Flat"
    PERFORMER "Salvatore Accardo"
    ISRC 000000000000
    INDEX 00 37:54:43
    INDEX 01 37:57:43
  TRACK 13 AUDIO
    TITLE "No.13 In B Flat"
    PERFORMER "Salvatore Accardo"
    ISRC 000000000000
    INDEX 00 40:27:55
    INDEX 01 40:29:55
  TRACK 14 AUDIO
    TITLE "No.14 In E Flat"
    PERFORMER "Salvatore Accardo"
    ISRC 000000000000
    INDEX 00 42:28:53
    INDEX 01 42:31:60
  TRACK 15 AUDIO
    TITLE "No.15 In E Minor"
    PERFORMER "Salvatore Accardo"
    ISRC 000000000000
    INDEX 00 43:47:35
    INDEX 01 43:47:63
  TRACK 16 AUDIO
    TITLE "No.16 In G Minor"
    PERFORMER "Salvatore Accardo"
    ISRC 000000000000
    INDEX 00 46:30:05
    INDEX 01 46:31:18
  TRACK 17 AUDIO
    TITLE "No.17 in E Flat"
    PERFORMER "Salvatore Accardo"
    ISRC 000000000000
    INDEX 00 47:49:71
    INDEX 01 47:52:23
  TRACK 18 AUDIO
    TITLE "No.18 In C"
    PERFORMER "Salvatore Accardo"
    ISRC 000000000000
    INDEX 00 51:25:20
    INDEX 01 51:26:50
  TRACK 19 AUDIO
    TITLE "No.19 In E Flat"
    PERFORMER "Salvatore Accardo"
    ISRC 000000000000
    INDEX 00 53:49:00
    INDEX 01 53:50:03
  TRACK 20 AUDIO
    TITLE "No.20 In D"
    PERFORMER "Salvatore Accardo"
    ISRC 000000000000
    INDEX 00 56:47:30
    INDEX 01 56:47:60
  TRACK 21 AUDIO
    TITLE "No.21 In A"
    PERFORMER "Salvatore Accardo"
    ISRC 000000000000
    INDEX 00 59:47:48
    INDEX 01 59:49:15
  TRACK 22 AUDIO
    TITLE "No.22 In F"
    PERFORMER "Salvatore Accardo"
    ISRC 000000000000
    INDEX 00 63:15:65
    INDEX 01 63:17:48
  TRACK 23 AUDIO
    TITLE "No.23 In E Flat"
    PERFORMER "Salvatore Accardo"
    ISRC 000000000000
    INDEX 00 66:30:55
    INDEX 01 66:33:58
  TRACK 24 AUDIO
    TITLE "No.24 In A Minor"
    PERFORMER "Salvatore Accardo"
    ISRC 000000000000
    INDEX 00 70:10:48
    INDEX 01 70:12:45
